<?xml version="1.0" standalone="no"?>
<!DOCTYPE svg PUBLIC "-//W3C//DTD SVG 20010904//EN"
 "http://www.w3.org/TR/2001/REC-SVG-20010904/DTD/svg10.dtd">
<svg version="1.0" xmlns="http://www.w3.org/2000/svg"
 width="340.000000pt" height="340.000000pt" viewBox="0 0 340.000000 340.000000"
 preserveAspectRatio="xMidYMid meet">
<metadata>
Created by potrace 1.11, written by Peter Selinger 2001-2013
</metadata>
<g transform="translate(0.000000,340.000000) scale(0.100000,-0.100000)"
fill="#000000" stroke="none">
<path d="M0 1700 l0 -1700 1700 0 1700 0 0 1700 0 1700 -1700 0 -1700 0 0
-1700z m1670 830 l0 -119 103 -3 102 -3 0 -120 0 -120 -102 -3 -103 -3 0 126
0 125 -505 0 -505 0 0 -730 0 -730 505 0 505 0 0 240 0 240 -202 2 -203 3 0
120 0 120 305 0 305 0 0 -365 0 -365 -102 -3 -103 -3 0 -119 0 -120 -505 0
-505 0 0 120 0 119 -102 3 -103 3 -3 733 -2 732 105 0 105 0 0 120 0 120 505
0 505 0 0 -120z m1230 -730 l0 -120 100 0 100 0 0 -370 0 -370 -100 0 -100 0
0 -120 0 -120 -305 0 -305 0 0 120 0 119 -102 3 -103 3 0 365 0 365 103 3 102
3 0 119 0 120 305 0 305 0 0 -120z"/>
<path d="M2290 1310 l0 -360 300 0 300 0 0 360 0 360 -300 0 -300 0 0 -360z"/>
</g>
</svg>
